<svg width="148" height="148" viewBox="0 0 148 148" fill="none" xmlns="http://www.w3.org/2000/svg">
<path fill-rule="evenodd" clip-rule="evenodd" d="M20.2945 20.4055C19.4401 20.0463 18.4974 19.9521 17.5888 20.1352C16.6802 20.3182 15.8475 20.77 15.1988 21.432C14.5501 22.094 14.1153 22.9357 13.9507 23.8478C13.7861 24.7599 13.8994 25.7005 14.2758 26.5475L33.3493 69.375H80.1667C81.3933 69.375 82.5697 69.8622 83.437 70.7296C84.3044 71.597 84.7917 72.7733 84.7917 74C84.7917 75.2266 84.3044 76.403 83.437 77.2703C82.5697 78.1377 81.3933 78.625 80.1667 78.625H33.3493L14.2758 121.452C13.8994 122.299 13.7861 123.24 13.9507 124.152C14.1153 125.064 14.5501 125.906 15.1988 126.568C15.8475 127.23 16.6802 127.682 17.5888 127.865C18.4974 128.048 19.4401 127.954 20.2945 127.594L137.461 78.2611C138.299 77.9075 139.014 77.3147 139.517 76.5568C140.02 75.7989 140.288 74.9095 140.288 74C140.288 73.0904 140.02 72.2011 139.517 71.4432C139.014 70.6852 138.299 70.0924 137.461 69.7388L20.2945 20.4055Z" fill="#18362B"/>
</svg>
