<svg width="148" height="148" viewBox="0 0 148 148" fill="none" xmlns="http://www.w3.org/2000/svg">
<path d="M98.6666 18.5C103.385 18.4997 107.926 20.3027 111.359 23.5399C114.792 26.7772 116.859 31.204 117.136 35.9147L117.167 37V98.6667H121.792C125.781 98.6667 129.068 101.701 129.463 105.586L129.5 106.375V117.167C129.5 121.885 127.697 126.426 124.46 129.859C121.223 133.293 116.796 135.359 112.085 135.636L111 135.667H49.3333C44.6145 135.667 40.0739 133.864 36.6406 130.627C33.2074 127.39 31.1409 122.963 30.8641 118.252L30.8333 117.167V55.5H20.0416C18.1333 55.5009 16.2924 54.7938 14.8754 53.5157C13.4583 52.2376 12.5657 50.4793 12.3703 48.581L12.3333 47.7917V37C12.333 32.2812 14.1359 27.7407 17.3732 24.3074C20.6104 20.8741 25.0372 18.8077 29.7479 18.5308L30.8333 18.5H98.6666ZM98.6666 30.8333H43.1666V117.167C43.1666 118.802 43.8163 120.371 44.9728 121.527C46.1292 122.684 47.6978 123.333 49.3333 123.333C50.9688 123.333 52.5373 122.684 53.6937 121.527C54.8502 120.371 55.4999 118.802 55.4999 117.167V106.375C55.4999 102.12 58.9533 98.6667 63.2083 98.6667H104.833V37C104.833 35.3645 104.184 33.796 103.027 32.6395C101.871 31.483 100.302 30.8333 98.6666 30.8333ZM117.167 111H67.8333V117.167C67.8333 119.325 67.4632 121.403 66.7849 123.333H111C112.635 123.333 114.204 122.684 115.36 121.527C116.517 120.371 117.167 118.802 117.167 117.167V111ZM73.9999 74C75.6354 74 77.2039 74.6497 78.3604 75.8062C79.5169 76.9627 80.1666 78.5312 80.1666 80.1667C80.1666 81.8022 79.5169 83.3707 78.3604 84.5272C77.2039 85.6836 75.6354 86.3333 73.9999 86.3333H61.6666C60.0311 86.3333 58.4626 85.6836 57.3061 84.5272C56.1496 83.3707 55.4999 81.8022 55.4999 80.1667C55.4999 78.5312 56.1496 76.9627 57.3061 75.8062C58.4626 74.6497 60.0311 74 61.6666 74H73.9999ZM86.3333 49.3333C87.9688 49.3333 89.5373 49.983 90.6937 51.1395C91.8502 52.296 92.4999 53.8645 92.4999 55.5C92.4999 57.1355 91.8502 58.704 90.6937 59.8605C89.5373 61.017 87.9688 61.6667 86.3333 61.6667H61.6666C60.0311 61.6667 58.4626 61.017 57.3061 59.8605C56.1496 58.704 55.4999 57.1355 55.4999 55.5C55.4999 53.8645 56.1496 52.296 57.3061 51.1395C58.4626 49.983 60.0311 49.3333 61.6666 49.3333H86.3333ZM30.8333 30.8333C29.3228 30.8335 27.865 31.3881 26.7363 32.3917C25.6076 33.3954 24.8865 34.7785 24.7098 36.2785L24.6666 37V43.1667H30.8333V30.8333Z" fill="#1E4436"/>
</svg>
