<svg width="463" height="363" viewBox="0 0 463 363" fill="none" xmlns="http://www.w3.org/2000/svg">
<g clip-path="url(#clip0_64_48)">
<path d="M361.412 136.258C385.003 136.258 404.127 117.162 404.127 93.6062C404.127 70.0502 385.003 50.9543 361.412 50.9543C337.821 50.9543 318.696 70.0502 318.696 93.6062C318.696 117.162 337.821 136.258 361.412 136.258Z" fill="#BCCCC6"/>
<path d="M364.551 357.273V259.237C364.552 257.863 365.099 256.547 366.072 255.575C367.045 254.604 368.363 254.058 369.739 254.056H381.519C382.894 254.058 384.213 254.604 385.185 255.575C386.158 256.547 386.705 257.863 386.706 259.237V357.273C386.705 358.646 386.158 359.963 385.185 360.934C384.213 361.905 382.894 362.451 381.519 362.453H369.739C368.363 362.451 367.045 361.905 366.072 360.934C365.099 359.963 364.552 358.646 364.551 357.273Z" fill="#122820"/>
<path d="M339.655 357.273V259.237C339.657 257.863 340.204 256.547 341.176 255.575C342.149 254.604 343.467 254.058 344.843 254.056H356.623C357.999 254.058 359.317 254.604 360.29 255.575C361.262 256.547 361.81 257.863 361.811 259.237V357.273C361.81 358.646 361.262 359.963 360.29 360.934C359.317 361.905 357.999 362.451 356.623 362.453H344.843C343.467 362.451 342.149 361.905 341.176 360.934C340.204 359.963 339.657 358.646 339.655 357.273Z" fill="#122820"/>
<path d="M329.947 265.183V178.361C329.947 169.899 333.313 161.785 339.305 155.802C345.297 149.819 353.424 146.458 361.897 146.458C370.371 146.458 378.498 149.819 384.49 155.802C390.482 161.785 393.848 169.899 393.848 178.361V265.183C393.848 266.557 393.301 267.875 392.328 268.846C391.355 269.818 390.036 270.364 388.66 270.364H335.135C333.759 270.364 332.439 269.818 331.467 268.846C330.494 267.875 329.947 266.557 329.947 265.183Z" fill="#122820"/>
<path d="M325.34 112.461L325.384 110.867C322.414 110.784 319.796 110.598 317.829 109.163C317.271 108.733 316.813 108.188 316.485 107.566C316.157 106.943 315.967 106.257 315.928 105.554C315.894 105.125 315.959 104.694 316.118 104.294C316.278 103.893 316.528 103.535 316.849 103.247C318.154 102.146 320.256 102.503 321.787 103.204L323.108 103.809L320.575 85.3271L318.994 85.5434L321.148 101.264C319.067 100.654 317.139 100.917 315.818 102.03C315.311 102.472 314.913 103.026 314.655 103.647C314.398 104.268 314.288 104.94 314.333 105.61C314.38 106.554 314.633 107.477 315.074 108.313C315.515 109.149 316.134 109.878 316.887 110.45C319.415 112.295 322.7 112.387 325.34 112.461Z" fill="#2F2E41"/>
<path d="M338.31 86.8992H329.712V88.4931H338.31V86.8992Z" fill="#2F2E41"/>
<path d="M378.31 265.123C377.807 264.664 377.401 264.109 377.114 263.492C376.827 262.874 376.666 262.206 376.64 261.526L372.573 163.575C372.545 162.895 372.651 162.217 372.885 161.578C373.12 160.939 373.478 160.353 373.939 159.853C374.401 159.352 374.956 158.947 375.574 158.661C376.192 158.375 376.861 158.213 377.541 158.185L389.312 157.697C390.686 157.642 392.026 158.133 393.038 159.063C394.05 159.993 394.651 161.286 394.709 162.659L398.777 260.61C398.832 261.983 398.34 263.321 397.408 264.331C396.477 265.342 395.182 265.942 393.808 266L382.038 266.487C381.663 266.503 381.287 266.479 380.917 266.415C379.942 266.243 379.037 265.795 378.31 265.123Z" fill="#BCCCC6"/>
<path d="M393.329 198.829H374.174C372.799 198.827 371.48 198.281 370.508 197.31C369.535 196.339 368.988 195.022 368.986 193.649V166.553C368.986 162.642 370.542 158.892 373.311 156.127C376.08 153.362 379.836 151.809 383.752 151.809C387.668 151.809 391.424 153.362 394.193 156.127C396.962 158.892 398.517 162.642 398.517 166.553V193.649C398.516 195.022 397.969 196.339 396.996 197.31C396.024 198.281 394.705 198.827 393.329 198.829Z" fill="#122820"/>
<path d="M270.32 235.129L262.81 226.066C261.935 225.007 261.516 223.644 261.645 222.277C261.774 220.91 262.442 219.649 263.5 218.773L339.148 156.279C340.209 155.404 341.574 154.985 342.943 155.114C344.313 155.244 345.575 155.91 346.452 156.968L353.962 166.031C354.396 166.555 354.723 167.16 354.923 167.81C355.123 168.46 355.193 169.143 355.129 169.82C355.065 170.498 354.868 171.156 354.549 171.757C354.231 172.358 353.796 172.891 353.271 173.324L277.624 235.818C276.713 236.57 275.572 236.989 274.391 237.006C273.209 237.023 272.056 236.637 271.124 235.912C270.828 235.68 270.559 235.418 270.32 235.129Z" fill="#BCCCC6"/>
<path d="M326.107 194.424L313.973 179.624C313.102 178.56 312.69 177.196 312.827 175.829C312.963 174.462 313.637 173.206 314.7 172.334L335.698 155.17C337.198 153.943 338.926 153.023 340.782 152.463C342.639 151.903 344.587 151.713 346.517 151.905C348.447 152.097 350.32 152.667 352.029 153.581C353.738 154.496 355.251 155.738 356.479 157.237C357.707 158.735 358.628 160.46 359.189 162.314C359.75 164.168 359.939 166.113 359.746 168.04C359.554 169.967 358.983 171.837 358.066 173.544C357.15 175.25 355.906 176.76 354.405 177.986L333.407 195.151C332.342 196.019 330.975 196.431 329.607 196.295C328.238 196.158 326.979 195.486 326.107 194.424Z" fill="#122820"/>
<path d="M372.121 100.828C374.345 97.1173 376.086 93.0291 375.26 88.6328C374.522 84.7071 371.693 81.6498 367.624 81.2485C365.174 81.0069 362.736 81.66 360.343 82.0853C358.381 82.4293 356.388 82.5582 354.398 82.4698C350.395 82.288 346.471 81.2945 342.864 79.5496C339.204 77.8392 335.953 75.3659 333.329 72.2961C330.706 69.2264 328.771 65.6313 327.655 61.7527C325.227 52.9275 327.03 42.906 332.795 35.7223L330.794 35.1948L333.399 43.7416C333.45 43.9168 333.54 44.0783 333.662 44.2139C333.785 44.3495 333.936 44.4556 334.105 44.5244C334.275 44.5931 334.457 44.6227 334.64 44.6109C334.822 44.599 334.999 44.5461 335.158 44.456C339.88 41.4769 345.159 39.4867 350.674 38.6062C356.19 37.7257 361.827 37.9732 367.244 39.3338C370.305 40.1017 373.261 41.237 376.048 42.7151C377.408 43.437 378.619 41.374 377.257 40.6507C372.021 37.9238 366.287 36.2857 360.4 35.8353C354.512 35.385 348.595 36.1319 343.005 38.0307C339.821 39.1141 336.781 40.5784 333.95 42.3916L335.708 43.106L333.103 34.5593C333.045 34.3594 332.936 34.178 332.787 34.0327C332.638 33.8873 332.454 33.783 332.252 33.7299C332.051 33.6768 331.839 33.6767 331.637 33.7296C331.436 33.7825 331.251 33.8866 331.102 34.0318C328.42 37.4282 326.455 41.3316 325.325 45.5066C324.194 49.6817 323.922 54.042 324.524 58.325C325.106 62.5463 326.576 66.5971 328.835 70.2118C331.095 73.8265 334.094 76.9234 337.637 79.2996C341.176 81.6848 345.153 83.3455 349.339 84.1857C353.525 85.0259 357.836 85.0289 362.023 84.1945C364.366 83.7448 367.023 83.1009 369.322 84.0806C370.156 84.4822 370.891 85.0623 371.475 85.7796C372.06 86.4968 372.478 87.3337 372.702 88.2308C374.005 92.639 371.788 96.8251 369.523 100.49L372.121 100.828Z" fill="#2F2E41"/>
<path d="M350.722 184.685L350.693 184.685C350.246 184.683 349.814 184.531 349.466 184.252C349.118 183.972 348.875 183.584 348.778 183.149L348.934 149.941C348.833 149.492 348.888 149.021 349.092 148.608C349.295 148.194 349.634 147.862 350.052 147.668C355.841 144.952 361.823 144.587 368.34 146.554C368.838 146.701 369.259 147.037 369.514 147.49C369.768 147.943 369.835 148.477 369.702 148.979L352.649 183.202C352.541 183.63 352.292 184.008 351.943 184.277C351.593 184.546 351.163 184.689 350.722 184.685Z" fill="#CCCCCC"/>
<path d="M462.202 363H264.264C264.052 363 263.849 362.916 263.7 362.767C263.55 362.617 263.466 362.414 263.466 362.203C263.466 361.992 263.55 361.789 263.7 361.64C263.849 361.49 264.052 361.406 264.264 361.406H462.202C462.414 361.406 462.617 361.49 462.766 361.64C462.916 361.789 463 361.992 463 362.203C463 362.414 462.916 362.617 462.766 362.767C462.617 362.916 462.414 363 462.202 363Z" fill="#3F3D56"/>
<path d="M268.174 248.075H119.72C117.71 248.073 115.783 247.275 114.362 245.855C112.94 244.436 112.14 242.512 112.138 240.504V130.526C112.14 128.518 112.94 126.594 114.362 125.175C115.783 123.755 117.71 122.957 119.72 122.955H268.174C270.184 122.957 272.111 123.755 273.533 125.175C274.954 126.594 275.754 128.518 275.756 130.526V240.504C275.754 242.512 274.954 244.436 273.533 245.855C272.111 247.275 270.184 248.073 268.174 248.075Z" fill="white"/>
<path d="M138.937 195.006L167.647 195.477H184.369C185.11 195.476 185.82 195.182 186.344 194.659C186.868 194.136 187.162 193.427 187.163 192.687V191.713L172.763 176.252C172.508 175.978 172.199 175.758 171.857 175.605C171.514 175.452 171.144 175.37 170.768 175.363C170.393 175.356 170.02 175.425 169.672 175.565C169.324 175.706 169.008 175.915 168.742 176.18L154.58 190.321C154.206 190.694 153.699 190.903 153.17 190.904C152.642 190.904 152.134 190.695 151.76 190.322L149.664 188.232C149.139 187.71 148.429 187.417 147.688 187.418C146.948 187.418 146.238 187.712 145.714 188.234L138.937 195.006Z" fill="#BCCCC6"/>
<path d="M268.174 248.075H119.72C117.71 248.073 115.783 247.275 114.362 245.855C112.94 244.436 112.14 242.512 112.138 240.504V130.526C112.14 128.518 112.94 126.594 114.362 125.175C115.783 123.755 117.71 122.957 119.72 122.955H268.174C270.184 122.957 272.111 123.755 273.533 125.175C274.954 126.594 275.754 128.518 275.756 130.526V240.504C275.754 242.512 274.954 244.436 273.533 245.855C272.111 247.275 270.184 248.073 268.174 248.075ZM119.72 125.345C118.345 125.347 117.026 125.893 116.054 126.864C115.081 127.836 114.534 129.152 114.533 130.526V240.504C114.534 241.878 115.081 243.194 116.054 244.165C117.026 245.137 118.345 245.683 119.72 245.684H268.174C269.549 245.683 270.868 245.137 271.841 244.166C272.813 243.194 273.36 241.878 273.362 240.504V130.526C273.36 129.152 272.813 127.836 271.841 126.864C270.868 125.893 269.549 125.347 268.174 125.345H119.72Z" fill="#18362B"/>
<path d="M251.413 142.48H136.481C135.846 142.48 135.237 142.228 134.788 141.78C134.339 141.331 134.087 140.723 134.087 140.089C134.087 139.455 134.339 138.847 134.788 138.398C135.237 137.95 135.846 137.698 136.481 137.698H251.413C252.048 137.698 252.657 137.95 253.106 138.398C253.555 138.847 253.807 139.455 253.807 140.089C253.807 140.723 253.555 141.331 253.106 141.78C252.657 142.228 252.048 142.48 251.413 142.48Z" fill="#18362B"/>
<path d="M251.812 155.629H136.88C136.245 155.629 135.636 155.378 135.187 154.929C134.738 154.481 134.486 153.873 134.486 153.239C134.486 152.605 134.738 151.996 135.187 151.548C135.636 151.1 136.245 150.848 136.88 150.848H251.812C252.447 150.848 253.056 151.1 253.505 151.548C253.954 151.996 254.207 152.605 254.207 153.239C254.207 153.873 253.954 154.481 253.505 154.929C253.056 155.378 252.447 155.629 251.812 155.629Z" fill="#18362B"/>
<path d="M252.211 168.779H197.14C196.505 168.779 195.896 168.527 195.447 168.079C194.998 167.63 194.745 167.022 194.745 166.388C194.745 165.754 194.998 165.146 195.447 164.698C195.896 164.249 196.505 163.997 197.14 163.997H252.211C252.846 163.997 253.455 164.249 253.904 164.698C254.353 165.146 254.606 165.754 254.606 166.388C254.606 167.022 254.353 167.63 253.904 168.079C253.455 168.527 252.846 168.779 252.211 168.779Z" fill="#18362B"/>
<path d="M252.61 181.929H197.539C196.904 181.929 196.295 181.677 195.846 181.228C195.397 180.78 195.144 180.172 195.144 179.538C195.144 178.904 195.397 178.296 195.846 177.847C196.295 177.399 196.904 177.147 197.539 177.147H252.61C253.245 177.147 253.854 177.399 254.303 177.847C254.752 178.296 255.005 178.904 255.005 179.538C255.005 180.172 254.752 180.78 254.303 181.228C253.854 181.677 253.245 181.929 252.61 181.929Z" fill="#18362B"/>
<path d="M253.009 195.078H197.938C197.303 195.078 196.694 194.826 196.245 194.378C195.796 193.93 195.543 193.322 195.543 192.687C195.543 192.053 195.796 191.445 196.245 190.997C196.694 190.549 197.303 190.297 197.938 190.297H253.009C253.644 190.297 254.253 190.549 254.702 190.997C255.151 191.445 255.404 192.053 255.404 192.687C255.404 193.322 255.151 193.93 254.702 194.378C254.253 194.826 253.644 195.078 253.009 195.078Z" fill="#18362B"/>
<path d="M253.408 208.228H138.477C137.842 208.228 137.233 207.976 136.784 207.528C136.335 207.079 136.082 206.471 136.082 205.837C136.082 205.203 136.335 204.595 136.784 204.147C137.233 203.698 137.842 203.446 138.477 203.446H253.408C254.043 203.446 254.652 203.698 255.101 204.147C255.551 204.595 255.803 205.203 255.803 205.837C255.803 206.471 255.551 207.079 255.101 207.528C254.652 207.976 254.043 208.228 253.408 208.228Z" fill="#18362B"/>
<path d="M253.808 221.378H138.876C138.241 221.378 137.632 221.126 137.183 220.677C136.734 220.229 136.481 219.621 136.481 218.987C136.481 218.353 136.734 217.745 137.183 217.296C137.632 216.848 138.241 216.596 138.876 216.596H253.808C254.443 216.596 255.052 216.848 255.501 217.296C255.95 217.745 256.202 218.353 256.202 218.987C256.202 219.621 255.95 220.229 255.501 220.677C255.052 221.126 254.443 221.378 253.808 221.378Z" fill="#18362B"/>
<path d="M254.206 234.527H139.275C138.64 234.527 138.031 234.275 137.582 233.827C137.133 233.379 136.88 232.77 136.88 232.136C136.88 231.502 137.133 230.894 137.582 230.446C138.031 229.997 138.64 229.745 139.275 229.745H254.206C254.841 229.745 255.451 229.997 255.9 230.446C256.349 230.894 256.601 231.502 256.601 232.136C256.601 232.77 256.349 233.379 255.9 233.827C255.451 234.275 254.841 234.527 254.206 234.527Z" fill="#18362B"/>
<path d="M184.369 195.875H139.674C139.008 195.877 138.354 195.71 137.771 195.389H137.76L137.557 195.267C136.983 194.91 136.509 194.412 136.181 193.822C135.853 193.231 135.682 192.566 135.683 191.891V167.982C135.684 166.926 136.105 165.913 136.853 165.166C137.601 164.419 138.616 163.999 139.674 163.997H184.369C185.427 163.999 186.442 164.419 187.19 165.166C187.938 165.913 188.359 166.926 188.36 167.982V191.891C188.359 192.947 187.938 193.96 187.19 194.707C186.442 195.454 185.427 195.874 184.369 195.875ZM138.305 193.851L138.42 193.921C138.795 194.158 139.23 194.284 139.674 194.281H184.369C185.004 194.281 185.613 194.029 186.062 193.58C186.511 193.132 186.763 192.524 186.764 191.891V167.982C186.763 167.348 186.511 166.741 186.062 166.292C185.613 165.844 185.004 165.592 184.369 165.591H139.674C139.039 165.592 138.43 165.844 137.981 166.292C137.533 166.741 137.28 167.348 137.279 167.982V191.891C137.279 192.276 137.372 192.655 137.551 192.997C137.729 193.338 137.988 193.631 138.305 193.851Z" fill="#3F3D56"/>
<path d="M1.71079 265.673C1.31191 265.759 0.945546 265.957 0.653668 266.241C0.36179 266.526 0.156209 266.888 0.0605215 267.284C-0.035166 267.68 -0.0170945 268.095 0.112646 268.482C0.242386 268.868 0.478561 269.21 0.794087 269.469L10.3933 277.337C10.5336 277.454 10.6498 277.597 10.7354 277.759C10.8151 277.922 10.8605 278.1 10.8686 278.281L11.5513 292.811C11.5649 293.286 11.7382 293.743 12.0434 294.109C12.3486 294.474 12.7678 294.726 13.2339 294.825L13.2508 294.828C13.7113 294.938 14.1951 294.89 14.6254 294.693C15.0557 294.497 15.4076 294.162 15.6252 293.742L19.0333 287.447C19.1476 287.24 19.3162 287.068 19.521 286.949C19.7259 286.83 19.9593 286.769 20.1962 286.772C20.3705 286.772 20.5429 286.808 20.7027 286.878C20.8624 286.947 21.006 287.049 21.1244 287.177L37.7634 304.695C38.0035 304.95 38.302 305.142 38.6331 305.255C38.9642 305.369 39.318 305.4 39.6638 305.346C40.0086 305.293 40.3355 305.157 40.617 304.952C40.8985 304.746 41.1264 304.475 41.2814 304.163L65.2372 255.587C65.4183 255.222 65.4924 254.812 65.451 254.406C65.4095 254.001 65.2541 253.615 65.0027 253.293C64.7513 252.971 64.4141 252.727 64.0298 252.588C63.6456 252.449 63.2299 252.422 62.8306 252.508L62.0465 252.677L1.71079 265.673ZM1.34225 268.8C1.15319 268.644 1.01185 268.439 0.934409 268.207C0.856965 267.974 0.846546 267.725 0.904352 267.487C0.962159 267.25 1.08587 267.033 1.26128 266.862C1.4367 266.691 1.65674 266.573 1.89623 266.521L62.2131 253.53L63.0159 253.357C63.2551 253.306 63.5037 253.324 63.7335 253.407C63.9632 253.491 64.1648 253.637 64.3154 253.829C64.4659 254.022 64.5593 254.253 64.5849 254.495C64.6105 254.738 64.5673 254.983 64.4602 255.203L40.5045 303.779C40.4115 303.966 40.2746 304.129 40.1054 304.252C39.9361 304.376 39.7395 304.456 39.5323 304.488C39.3251 304.519 39.1134 304.5 38.9151 304.432C38.7168 304.364 38.5379 304.25 38.3935 304.098L21.7546 286.58C21.592 286.404 21.4004 286.258 21.1881 286.148L63.0197 255.466C63.1842 255.348 63.3022 255.176 63.3533 254.98C63.4043 254.784 63.3852 254.577 63.2993 254.393C63.2133 254.21 63.066 254.063 62.8826 253.976C62.6993 253.89 62.4916 253.871 62.2953 253.921C62.2473 253.933 62.2004 253.949 62.1556 253.97L11.2793 277.009C11.1799 276.883 11.0665 276.769 10.9414 276.668L1.34225 268.8Z" fill="#E6E6E6"/>
<path d="M1.71079 265.673C1.31191 265.759 0.945546 265.957 0.653668 266.241C0.36179 266.526 0.156209 266.888 0.0605215 267.284C-0.035166 267.68 -0.0170945 268.095 0.112646 268.482C0.242386 268.868 0.478561 269.21 0.794087 269.469L10.3933 277.337C10.5336 277.454 10.6498 277.597 10.7354 277.759C10.8151 277.922 10.8605 278.1 10.8686 278.281L11.5513 292.811C11.5649 293.286 11.7382 293.743 12.0434 294.109C12.3486 294.474 12.7678 294.726 13.2339 294.825L13.2508 294.828C13.7113 294.938 14.1951 294.89 14.6254 294.693C15.0557 294.497 15.4076 294.162 15.6252 293.742L19.0333 287.447C19.1476 287.24 19.3162 287.068 19.521 286.949C19.7259 286.83 19.9593 286.769 20.1962 286.772C20.3705 286.772 20.5429 286.808 20.7027 286.878C20.8624 286.947 21.006 287.049 21.1244 287.177L37.7634 304.695C38.0035 304.95 38.302 305.142 38.6331 305.255C38.9642 305.369 39.318 305.4 39.6638 305.346C40.0086 305.293 40.3355 305.157 40.617 304.952C40.8985 304.746 41.1264 304.475 41.2814 304.163L65.2372 255.587C65.4183 255.222 65.4924 254.812 65.451 254.406C65.4095 254.001 65.2541 253.615 65.0027 253.293C64.7513 252.971 64.4141 252.727 64.0298 252.588C63.6456 252.449 63.2299 252.422 62.8306 252.508L62.0465 252.677L1.71079 265.673ZM1.34225 268.8C1.15319 268.644 1.01185 268.439 0.934409 268.207C0.856965 267.974 0.846546 267.725 0.904352 267.487C0.962159 267.25 1.08587 267.033 1.26128 266.862C1.4367 266.691 1.65674 266.573 1.89623 266.521L62.2131 253.53L63.0159 253.357C63.2551 253.306 63.5037 253.324 63.7335 253.407C63.9632 253.491 64.1648 253.637 64.3154 253.829C64.4659 254.022 64.5593 254.253 64.5849 254.495C64.6105 254.738 64.5673 254.983 64.4602 255.203L40.5045 303.779C40.4115 303.966 40.2746 304.129 40.1054 304.252C39.9361 304.376 39.7395 304.456 39.5323 304.488C39.3251 304.519 39.1133 304.5 38.9151 304.432C38.7168 304.364 38.5379 304.25 38.3935 304.098L21.7546 286.58C21.592 286.404 21.4003 286.258 21.1881 286.148C20.8842 285.988 20.5457 285.904 20.202 285.904C20.1536 285.902 20.1042 285.904 20.0547 285.907L20.0505 285.906C19.6822 285.927 19.3254 286.042 19.014 286.239C18.7026 286.437 18.447 286.711 18.2714 287.035L14.8622 293.334C14.7321 293.587 14.5202 293.788 14.261 293.906C14.0018 294.023 13.7105 294.05 13.4342 293.981L13.4257 293.979C13.1453 293.922 12.8927 293.771 12.7096 293.552C12.5264 293.332 12.4234 293.057 12.4177 292.771L11.7352 278.241C11.7295 278.088 11.7066 277.935 11.6668 277.787L11.6678 277.783C11.6301 277.64 11.5773 277.502 11.5104 277.371C11.4465 277.242 11.369 277.121 11.2793 277.009C11.1798 276.883 11.0665 276.769 10.9414 276.668L1.34225 268.8Z" fill="#CCCCCC"/>
<path d="M11.2794 277.009L62.1556 253.97C62.2005 253.949 62.2473 253.933 62.2954 253.921C62.4916 253.871 62.6994 253.89 62.8827 253.976C63.066 254.063 63.2134 254.21 63.2993 254.393C63.3853 254.577 63.4043 254.784 63.3533 254.98C63.3022 255.176 63.1843 255.348 63.0198 255.466L21.1881 286.148L20.45 286.691L19.9382 285.992L20.0506 285.906L20.0547 285.907L62.5038 254.766L11.6679 277.783L11.6669 277.787L11.4455 277.885L11.0869 277.095L11.2794 277.009Z" fill="#CCCCCC"/>
<path d="M304.774 290.378L244.438 277.382L243.654 277.214C243.254 277.127 242.839 277.155 242.455 277.294C242.07 277.432 241.733 277.677 241.482 277.998C241.23 278.32 241.075 278.706 241.033 279.112C240.992 279.518 241.066 279.927 241.247 280.293L265.203 328.869C265.358 329.181 265.586 329.451 265.867 329.657C266.149 329.863 266.476 329.998 266.821 330.051C267.166 330.105 267.52 330.074 267.851 329.961C268.182 329.847 268.481 329.655 268.721 329.401L285.36 311.882C285.478 311.755 285.622 311.653 285.782 311.583C285.941 311.513 286.114 311.478 286.288 311.478C286.525 311.474 286.758 311.535 286.963 311.654C287.168 311.773 287.337 311.946 287.451 312.153L290.859 318.447C291.077 318.867 291.429 319.202 291.859 319.399C292.289 319.596 292.773 319.643 293.233 319.534L293.25 319.53C293.717 319.431 294.136 319.179 294.441 318.814C294.746 318.449 294.919 317.992 294.933 317.516L295.616 302.986C295.624 302.805 295.669 302.627 295.749 302.464C295.835 302.303 295.951 302.16 296.091 302.042L305.69 294.174C306.006 293.916 306.242 293.574 306.372 293.187C306.501 292.801 306.52 292.386 306.424 291.989C306.328 291.593 306.123 291.232 305.831 290.947C305.539 290.662 305.173 290.465 304.774 290.378ZM305.142 293.505L295.543 301.373C295.418 301.474 295.305 301.588 295.205 301.714L244.329 278.675C244.284 278.655 244.237 278.638 244.189 278.627C243.993 278.576 243.785 278.596 243.602 278.682C243.418 278.768 243.271 278.916 243.185 279.099C243.099 279.282 243.08 279.49 243.131 279.685C243.182 279.881 243.3 280.053 243.465 280.171L285.296 310.854C285.084 310.964 284.892 311.11 284.73 311.285L268.091 328.803C267.947 328.955 267.768 329.07 267.569 329.137C267.371 329.205 267.159 329.224 266.952 329.193C266.745 329.162 266.548 329.081 266.379 328.957C266.21 328.834 266.073 328.672 265.98 328.484L242.024 279.908C241.917 279.689 241.874 279.444 241.9 279.201C241.925 278.958 242.019 278.727 242.169 278.535C242.32 278.342 242.521 278.196 242.751 278.113C242.981 278.029 243.229 278.012 243.469 278.062L244.271 278.236L304.588 291.227C304.828 291.279 305.048 291.397 305.223 291.568C305.399 291.738 305.522 291.955 305.58 292.193C305.638 292.431 305.627 292.68 305.55 292.912C305.473 293.144 305.331 293.35 305.142 293.505Z" fill="#E6E6E6"/>
<path d="M304.774 290.378L244.438 277.382L243.654 277.214C243.254 277.127 242.839 277.155 242.455 277.294C242.07 277.432 241.733 277.677 241.482 277.998C241.23 278.32 241.075 278.706 241.033 279.112C240.992 279.518 241.066 279.927 241.247 280.293L265.203 328.869C265.358 329.181 265.586 329.451 265.867 329.657C266.149 329.863 266.476 329.998 266.821 330.051C267.166 330.105 267.52 330.074 267.851 329.961C268.182 329.847 268.481 329.655 268.721 329.401L285.36 311.882C285.478 311.755 285.622 311.653 285.782 311.583C285.941 311.513 286.114 311.478 286.288 311.478C286.525 311.474 286.758 311.535 286.963 311.654C287.168 311.773 287.337 311.946 287.451 312.153L290.859 318.447C291.077 318.867 291.429 319.202 291.859 319.399C292.289 319.596 292.773 319.643 293.233 319.534L293.25 319.53C293.717 319.431 294.136 319.179 294.441 318.814C294.746 318.449 294.919 317.992 294.933 317.516L295.616 302.986C295.624 302.805 295.669 302.627 295.749 302.464C295.835 302.303 295.951 302.16 296.091 302.042L305.69 294.174C306.006 293.916 306.242 293.574 306.372 293.187C306.501 292.801 306.52 292.386 306.424 291.989C306.328 291.593 306.123 291.232 305.831 290.947C305.539 290.662 305.173 290.465 304.774 290.378ZM305.142 293.505L295.543 301.373C295.418 301.474 295.305 301.588 295.205 301.714C295.115 301.826 295.038 301.948 294.974 302.076C294.907 302.207 294.854 302.346 294.817 302.488L294.818 302.492C294.778 302.641 294.755 302.793 294.749 302.947L294.067 317.477C294.061 317.762 293.958 318.038 293.775 318.257C293.592 318.477 293.339 318.628 293.059 318.685L293.05 318.687C292.774 318.755 292.483 318.728 292.223 318.611C291.964 318.493 291.752 318.292 291.622 318.039L288.213 311.74C288.037 311.416 287.782 311.142 287.47 310.945C287.159 310.747 286.802 310.632 286.434 310.611L286.43 310.612C286.38 310.61 286.331 310.607 286.282 310.609C285.939 310.609 285.6 310.693 285.296 310.854C285.084 310.964 284.892 311.11 284.73 311.285L268.091 328.803C267.947 328.955 267.768 329.07 267.569 329.137C267.371 329.205 267.159 329.224 266.952 329.193C266.745 329.162 266.548 329.081 266.379 328.957C266.21 328.834 266.073 328.672 265.98 328.484L242.024 279.908C241.917 279.689 241.874 279.444 241.9 279.201C241.925 278.958 242.019 278.727 242.169 278.535C242.32 278.342 242.521 278.196 242.751 278.113C242.981 278.029 243.229 278.012 243.469 278.062L244.271 278.236L304.588 291.227C304.828 291.279 305.048 291.397 305.223 291.568C305.399 291.738 305.522 291.955 305.58 292.193C305.638 292.431 305.627 292.68 305.55 292.912C305.473 293.144 305.331 293.35 305.142 293.505Z" fill="#CCCCCC"/>
<path d="M295.398 301.801L295.039 302.59L294.818 302.492L294.817 302.488L243.981 279.471L286.43 310.612L286.434 310.611L286.546 310.697L286.035 311.396L285.296 310.853L243.465 280.171C243.3 280.053 243.182 279.881 243.131 279.685C243.08 279.489 243.099 279.282 243.185 279.099C243.271 278.916 243.419 278.768 243.602 278.682C243.785 278.596 243.993 278.576 244.189 278.626C244.237 278.638 244.284 278.655 244.329 278.675L295.205 301.714L295.398 301.801Z" fill="#CCCCCC"/>
<path d="M67.6464 0.921014C67.2619 0.521487 66.7739 0.236318 66.2367 0.0972285C65.6995 -0.0418607 65.1342 -0.0294198 64.6037 0.133175C64.0732 0.295769 63.5982 0.602139 63.2317 1.0182C62.8651 1.43426 62.6214 1.94371 62.5275 2.48986L60.0245 18.9922C59.9853 19.2353 59.8984 19.4684 59.7688 19.678C59.6322 19.8834 59.4548 20.0585 59.2476 20.1926L42.6094 31.0274C42.0615 31.3651 41.6454 31.8792 41.4297 32.4848C41.214 33.0905 41.2115 33.7516 41.4229 34.3588L41.4304 34.3809C41.6328 34.9919 42.0328 35.5184 42.5675 35.8777C43.1022 36.2369 43.7413 36.4085 44.3843 36.3656L54.2034 35.9398C54.5264 35.9272 54.8467 36.0015 55.131 36.1552C55.4152 36.3088 55.6527 36.536 55.8187 36.813C55.9415 37.0128 56.0209 37.2363 56.0514 37.4688C56.082 37.7013 56.0632 37.9376 55.9961 38.1624L47.086 69.4503C46.9559 69.9034 46.9401 70.3815 47.0401 70.8422C47.1401 71.3028 47.3528 71.7315 47.6592 72.0901C47.9686 72.452 48.3596 72.7356 48.8001 72.9174C49.2405 73.0993 49.7179 73.1742 50.193 73.1362L124.315 67.1482C124.985 67.096 125.618 66.8213 126.113 66.3677C126.397 66.1087 126.627 65.7953 126.788 65.4461C126.949 65.0969 127.038 64.7191 127.051 64.3348C127.063 63.9506 126.998 63.5677 126.86 63.2089C126.722 62.8501 126.513 62.5226 126.246 62.2457L125.495 61.4587L67.6464 0.921014ZM63.7021 2.65896C63.7629 2.26774 63.9554 1.90888 64.2478 1.64147C64.5967 1.32315 65.0564 1.15341 65.5288 1.16837C66.0013 1.18333 66.4492 1.3818 66.7773 1.72156L124.607 62.2408L125.377 63.046C125.647 63.3303 125.814 63.6977 125.849 64.0884C125.867 64.3199 125.84 64.5528 125.768 64.7737C125.696 64.9946 125.581 65.1991 125.43 65.3755C125.278 65.5519 125.094 65.6967 124.886 65.8016C124.678 65.9065 124.452 65.9694 124.22 65.9867L50.0986 71.9748C49.8896 71.9913 49.6793 71.9717 49.477 71.9166C49.253 71.8582 49.0428 71.7558 48.8587 71.6155C48.6746 71.4752 48.5202 71.2997 48.4046 71.0994C48.289 70.899 48.2144 70.6777 48.1851 70.4483C48.1559 70.2189 48.1726 69.9859 48.2343 69.763L57.1444 38.4754C57.2362 38.1672 57.2731 37.8452 57.2533 37.5242L122.895 64.5088C123.115 64.6021 123.358 64.6279 123.593 64.583C123.828 64.5382 124.045 64.4246 124.215 64.2568C124.325 64.1487 124.412 64.0198 124.471 63.8776C124.53 63.7354 124.56 63.5828 124.559 63.4289C124.558 63.275 124.526 63.1229 124.465 62.9815C124.404 62.8402 124.315 62.7124 124.204 62.6059C124.156 62.5585 124.104 62.5159 124.048 62.4787L61.0357 19.7863C61.1139 19.5848 61.1687 19.3751 61.1991 19.1612L63.7021 2.65896Z" fill="#E6E6E6"/>
<path d="M67.6464 0.921014C67.2619 0.521487 66.7739 0.236318 66.2367 0.0972285C65.6995 -0.0418607 65.1342 -0.0294198 64.6037 0.133175C64.0732 0.295769 63.5982 0.602139 63.2317 1.0182C62.8651 1.43426 62.6214 1.94371 62.5275 2.48986L60.0245 18.9922C59.9853 19.2353 59.8984 19.4684 59.7688 19.678C59.6322 19.8834 59.4548 20.0585 59.2476 20.1926L42.6094 31.0274C42.0615 31.3651 41.6454 31.8792 41.4297 32.4848C41.214 33.0905 41.2115 33.7516 41.4229 34.3588L41.4304 34.3809C41.6328 34.9919 42.0328 35.5184 42.5675 35.8777C43.1022 36.2369 43.7413 36.4085 44.3843 36.3656L54.2034 35.9398C54.5264 35.9272 54.8467 36.0015 55.131 36.1552C55.4152 36.3088 55.6527 36.536 55.8187 36.813C55.9415 37.0128 56.0209 37.2363 56.0514 37.4688C56.082 37.7013 56.0632 37.9376 55.9961 38.1624L47.086 69.4503C46.9559 69.9034 46.9401 70.3815 47.0401 70.8422C47.1401 71.3028 47.3528 71.7315 47.6592 72.0901C47.9686 72.452 48.3596 72.7356 48.8001 72.9174C49.2405 73.0993 49.7179 73.1742 50.193 73.1362L124.315 67.1482C124.985 67.096 125.618 66.8213 126.113 66.3677C126.397 66.1087 126.627 65.7953 126.788 65.4461C126.949 65.0969 127.038 64.7191 127.051 64.3348C127.063 63.9506 126.998 63.5677 126.86 63.2089C126.722 62.8501 126.513 62.5226 126.246 62.2457L125.495 61.4587L67.6464 0.921014ZM63.7021 2.65896C63.7629 2.26774 63.9554 1.90888 64.2478 1.64147C64.5967 1.32315 65.0564 1.15341 65.5288 1.16837C66.0013 1.18333 66.4492 1.3818 66.7773 1.72156L124.607 62.2408L125.377 63.046C125.647 63.3303 125.814 63.6977 125.849 64.0884C125.867 64.3199 125.84 64.5528 125.768 64.7737C125.696 64.9946 125.581 65.1991 125.43 65.3755C125.278 65.5519 125.094 65.6967 124.886 65.8016C124.678 65.9065 124.452 65.9694 124.22 65.9867L50.0986 71.9748C49.8896 71.9913 49.6793 71.9716 49.477 71.9166C49.253 71.8581 49.0428 71.7558 48.8587 71.6154C48.6746 71.4752 48.5202 71.2997 48.4046 71.0993C48.289 70.899 48.2144 70.6777 48.1851 70.4482C48.1559 70.2188 48.1726 69.9859 48.2343 69.763L57.1444 38.4754C57.2362 38.1671 57.2731 37.8452 57.2533 37.5242C57.2277 37.0622 57.0879 36.6138 56.8462 36.219C56.8142 36.1619 56.7766 36.1067 56.7389 36.0512L56.737 36.0458C56.4482 35.6339 56.0598 35.3016 55.6079 35.0797C55.1561 34.8578 54.6553 34.7535 54.1523 34.7765L44.3276 35.2041C43.9409 35.2311 43.5564 35.1277 43.2355 34.9105C42.9146 34.6934 42.676 34.375 42.5579 34.0063L42.5541 33.9952C42.4245 33.6314 42.4246 33.234 42.5544 32.8702C42.6842 32.5064 42.9358 32.1984 43.2667 31.9984L59.905 21.1639C60.0816 21.0514 60.2451 20.9196 60.3923 20.7708L60.3979 20.769C60.539 20.6273 60.6646 20.471 60.7724 20.3027C60.8785 20.1405 60.9668 19.9674 61.0357 19.7862C61.1139 19.5848 61.1687 19.3751 61.1991 19.1611L63.7021 2.65896Z" fill="#CCCCCC"/>
<path d="M61.0357 19.7863L124.048 62.4787C124.104 62.5159 124.156 62.5585 124.204 62.6059C124.374 62.7692 124.491 62.9809 124.537 63.2122C124.583 63.4436 124.556 63.6835 124.461 63.8994C124.332 64.1855 124.096 64.4096 123.803 64.5236C123.51 64.6375 123.184 64.6322 122.895 64.5088L57.2533 37.5243L56.0938 37.049L56.5563 35.9759L56.737 36.0458L56.7389 36.0513L123.355 63.4304L60.3979 20.769L60.3923 20.7709L60.1212 20.5831L60.7984 19.6241L61.0357 19.7863Z" fill="#CCCCCC"/>
</g>
<defs>
<clipPath id="clip0_64_48">
<rect width="463" height="363" fill="white"/>
</clipPath>
</defs>
</svg>
