<svg width="148" height="148" viewBox="0 0 148 148" fill="none" xmlns="http://www.w3.org/2000/svg">
<path d="M64.75 123.333C64.75 125.787 65.7245 128.139 67.4592 129.874C69.1939 131.609 71.5467 132.583 74 132.583C76.4532 132.583 78.806 131.609 80.5407 129.874C82.2754 128.139 83.25 125.787 83.25 123.333V83.25H123.333C125.787 83.25 128.139 82.2754 129.874 80.5407C131.609 78.806 132.583 76.4532 132.583 74C132.583 71.5467 131.609 69.1939 129.874 67.4592C128.139 65.7245 125.787 64.75 123.333 64.75H83.25V24.6666C83.25 22.2134 82.2754 19.8606 80.5407 18.1259C78.806 16.3912 76.4532 15.4166 74 15.4166C71.5467 15.4166 69.1939 16.3912 67.4592 18.1259C65.7245 19.8606 64.75 22.2134 64.75 24.6666V64.75H24.6666C22.2134 64.75 19.8606 65.7245 18.1259 67.4592C16.3912 69.1939 15.4166 71.5467 15.4166 74C15.4166 76.4532 16.3912 78.806 18.1259 80.5407C19.8606 82.2754 22.2134 83.25 24.6666 83.25H64.75V123.333Z" fill="#1E4436"/>
</svg>
