<svg width="24" height="24" viewBox="0 0 24 24" fill="none" xmlns="http://www.w3.org/2000/svg">
<mask id="path-1-inside-1_136_213" fill="white">
<path d="M12.5931 23.2579L12.582 23.2599L12.511 23.2949L12.491 23.2989L12.477 23.2949L12.406 23.2599C12.3954 23.2566 12.3874 23.2583 12.382 23.2649L12.378 23.2749L12.361 23.7029L12.366 23.7229L12.376 23.7359L12.48 23.8099L12.495 23.8139L12.507 23.8099L12.611 23.7359L12.623 23.7199L12.627 23.7029L12.61 23.2759C12.6074 23.2653 12.6017 23.2593 12.5931 23.2579ZM12.858 23.1449L12.845 23.1469L12.66 23.2399L12.65 23.2499L12.647 23.2609L12.665 23.6909L12.67 23.7029L12.6781 23.7099L12.879 23.8029C12.8917 23.8063 12.9014 23.8036 12.908 23.7949L12.912 23.7809L12.878 23.1669C12.8747 23.1549 12.868 23.1476 12.858 23.1449ZM12.143 23.1469C12.1386 23.1443 12.1334 23.1434 12.1283 23.1445C12.1233 23.1456 12.1189 23.1487 12.116 23.1529L12.11 23.1669L12.076 23.7809C12.0767 23.7929 12.0824 23.8009 12.0931 23.8049L12.108 23.8029L12.309 23.7099L12.319 23.7019L12.323 23.6909L12.34 23.2609L12.337 23.2489L12.327 23.2389L12.143 23.1469Z"/>
</mask>
<path d="M12.5931 23.2579L12.7451 22.2696L12.5792 22.244L12.4141 22.2741L12.5931 23.2579ZM12.582 23.2599L12.4031 22.2761L12.2654 22.3011L12.1399 22.363L12.582 23.2599ZM12.511 23.2949L12.7072 24.2755L12.8357 24.2498L12.9532 24.1919L12.511 23.2949ZM12.491 23.2989L12.2163 24.2605L12.4494 24.3271L12.6872 24.2795L12.491 23.2989ZM12.477 23.2949L12.0349 24.1919L12.1157 24.2317L12.2023 24.2565L12.477 23.2949ZM12.406 23.2599L12.8482 22.363L12.7785 22.3286L12.7043 22.3055L12.406 23.2599ZM12.382 23.2649L11.6012 22.6402L11.5086 22.756L11.4536 22.8936L12.382 23.2649ZM12.378 23.2749L11.4496 22.9036L11.3857 23.0633L11.3788 23.2352L12.378 23.2749ZM12.361 23.7029L11.3618 23.6632L11.3561 23.8064L11.3909 23.9455L12.361 23.7029ZM12.366 23.7229L11.3959 23.9655L11.4464 24.1675L11.5734 24.3326L12.366 23.7229ZM12.376 23.7359L11.5834 24.3456L11.6745 24.4641L11.7963 24.5507L12.376 23.7359ZM12.48 23.8099L11.9003 24.6247L12.0477 24.7296L12.2224 24.7762L12.48 23.8099ZM12.495 23.8139L12.2374 24.7802L12.527 24.8574L12.8113 24.7626L12.495 23.8139ZM12.507 23.8099L12.8233 24.7586L12.965 24.7114L13.0868 24.6247L12.507 23.8099ZM12.611 23.7359L13.1908 24.5507L13.3177 24.4605L13.4111 24.3359L12.611 23.7359ZM12.623 23.7199L13.4231 24.3199L13.5486 24.1526L13.5965 23.949L12.623 23.7199ZM12.627 23.7029L13.6005 23.932L13.6317 23.7993L13.6263 23.6632L12.627 23.7029ZM12.61 23.2759L13.6093 23.2362L13.6052 23.1333L13.5802 23.0334L12.61 23.2759ZM12.858 23.1449L13.1157 22.1787L12.9132 22.1247L12.7061 22.1566L12.858 23.1449ZM12.845 23.1469L12.6931 22.1586L12.537 22.1826L12.3959 22.2535L12.845 23.1469ZM12.66 23.2399L12.2109 22.3465L12.0669 22.4189L11.9529 22.5328L12.66 23.2399ZM12.65 23.2499L11.9429 22.5428L11.7551 22.7306L11.6853 22.9869L12.65 23.2499ZM12.647 23.2609L11.6823 22.9979L11.6414 23.1476L11.6479 23.3028L12.647 23.2609ZM12.665 23.6909L11.6659 23.7328L11.6734 23.911L11.742 24.0756L12.665 23.6909ZM12.67 23.7029L11.747 24.0876L11.8365 24.3023L12.0116 24.4555L12.67 23.7029ZM12.6781 23.7099L12.0196 24.4625L12.1277 24.5572L12.2581 24.6175L12.6781 23.7099ZM12.879 23.8029L12.4591 24.7105L12.5392 24.7476L12.6246 24.77L12.879 23.8029ZM12.908 23.7949L13.7007 24.4046L13.8171 24.2533L13.8696 24.0696L12.908 23.7949ZM12.912 23.7809L13.8736 24.0556L13.9198 23.8938L13.9105 23.7256L12.912 23.7809ZM12.878 23.1669L13.8765 23.1116L13.8705 23.0036L13.8416 22.8993L12.878 23.1669ZM12.143 23.1469L11.6248 24.0021L11.6595 24.0232L11.6958 24.0414L12.143 23.1469ZM12.116 23.1529L11.2843 22.5977L11.2332 22.6743L11.1969 22.759L12.116 23.1529ZM12.11 23.1669L11.1909 22.773L11.1213 22.9353L11.1116 23.1116L12.11 23.1669ZM12.076 23.7809L11.0776 23.7256L11.0745 23.781L11.0776 23.8364L12.076 23.7809ZM12.0931 23.8049L11.7419 24.7413L11.9767 24.8293L12.2253 24.7962L12.0931 23.8049ZM12.108 23.8029L12.2403 24.7942L12.3905 24.7741L12.528 24.7105L12.108 23.8029ZM12.309 23.7099L12.729 24.6175L12.839 24.5666L12.9337 24.4908L12.309 23.7099ZM12.319 23.7019L12.9437 24.4828L13.1629 24.3075L13.2588 24.0437L12.319 23.7019ZM12.323 23.6909L13.2628 24.0327L13.3161 23.8862L13.3223 23.7304L12.323 23.6909ZM12.34 23.2609L13.3393 23.3004L13.3449 23.1573L13.3102 23.0184L12.34 23.2609ZM12.337 23.2489L13.3072 23.0064L13.24 22.7377L13.0442 22.5418L12.337 23.2489ZM12.327 23.2389L13.0342 22.5318L12.9194 22.4171L12.7743 22.3445L12.327 23.2389ZM12.5931 23.2579L12.4141 22.2741L12.4031 22.2761L12.582 23.2599L12.761 24.2438L12.772 24.2418L12.5931 23.2579ZM12.582 23.2599L12.1399 22.363L12.0689 22.398L12.511 23.2949L12.9532 24.1919L13.0242 24.1569L12.582 23.2599ZM12.511 23.2949L12.3149 22.3144L12.2949 22.3184L12.491 23.2989L12.6872 24.2795L12.7072 24.2755L12.511 23.2949ZM12.491 23.2989L12.7658 22.3374L12.7518 22.3334L12.477 23.2949L12.2023 24.2565L12.2163 24.2605L12.491 23.2989ZM12.477 23.2949L12.9192 22.398L12.8482 22.363L12.406 23.2599L11.9639 24.1569L12.0349 24.1919L12.477 23.2949ZM12.406 23.2599L12.7043 22.3055C12.5935 22.2708 12.409 22.2337 12.1881 22.2797C11.9457 22.3302 11.7421 22.4641 11.6012 22.6402L12.382 23.2649L13.1629 23.8896C13.0273 24.0591 12.8304 24.1888 12.596 24.2377C12.3831 24.282 12.2079 24.2457 12.1078 24.2144L12.406 23.2599ZM12.382 23.2649L11.4536 22.8936L11.4496 22.9036L12.378 23.2749L13.3065 23.6463L13.3105 23.6363L12.382 23.2649ZM12.378 23.2749L11.3788 23.2352L11.3618 23.6632L12.361 23.7029L13.3603 23.7426L13.3773 23.3146L12.378 23.2749ZM12.361 23.7029L11.3909 23.9455L11.3959 23.9655L12.366 23.7229L13.3362 23.4804L13.3312 23.4604L12.361 23.7029ZM12.366 23.7229L11.5734 24.3326L11.5834 24.3456L12.376 23.7359L13.1687 23.1262L13.1587 23.1132L12.366 23.7229ZM12.376 23.7359L11.7963 24.5507L11.9003 24.6247L12.48 23.8099L13.0598 22.9951L12.9558 22.9211L12.376 23.7359ZM12.48 23.8099L12.2224 24.7762L12.2374 24.7802L12.495 23.8139L12.7527 22.8477L12.7377 22.8437L12.48 23.8099ZM12.495 23.8139L12.8113 24.7626L12.8233 24.7586L12.507 23.8099L12.1908 22.8612L12.1788 22.8652L12.495 23.8139ZM12.507 23.8099L13.0868 24.6247L13.1908 24.5507L12.611 23.7359L12.0313 22.9211L11.9273 22.9951L12.507 23.8099ZM12.611 23.7359L13.4111 24.3359L13.4231 24.3199L12.623 23.7199L11.823 23.12L11.811 23.136L12.611 23.7359ZM12.623 23.7199L13.5965 23.949L13.6005 23.932L12.627 23.7029L11.6536 23.4739L11.6496 23.4909L12.623 23.7199ZM12.627 23.7029L13.6263 23.6632L13.6093 23.2362L12.61 23.2759L11.6108 23.3157L11.6278 23.7427L12.627 23.7029ZM12.61 23.2759L13.5802 23.0334C13.5506 22.915 13.4842 22.7392 13.3308 22.5768C13.1653 22.4016 12.9546 22.3018 12.7451 22.2696L12.5931 23.2579L12.441 24.2463C12.2402 24.2154 12.0366 24.1193 11.8768 23.95C11.7291 23.7936 11.6668 23.6262 11.6399 23.5185L12.61 23.2759ZM12.858 23.1449L12.7061 22.1566L12.6931 22.1586L12.845 23.1469L12.997 24.1353L13.01 24.1333L12.858 23.1449ZM12.845 23.1469L12.3959 22.2535L12.2109 22.3465L12.66 23.2399L13.1092 24.1334L13.2942 24.0404L12.845 23.1469ZM12.66 23.2399L11.9529 22.5328L11.9429 22.5428L12.65 23.2499L13.3572 23.957L13.3672 23.947L12.66 23.2399ZM12.65 23.2499L11.6853 22.9869L11.6823 22.9979L12.647 23.2609L13.6118 23.524L13.6148 23.513L12.65 23.2499ZM12.647 23.2609L11.6479 23.3028L11.6659 23.7328L12.665 23.6909L13.6642 23.6491L13.6462 23.2191L12.647 23.2609ZM12.665 23.6909L11.742 24.0756L11.747 24.0876L12.67 23.7029L13.5931 23.3183L13.5881 23.3063L12.665 23.6909ZM12.67 23.7029L12.0116 24.4555L12.0196 24.4625L12.6781 23.7099L13.3365 22.9573L13.3285 22.9503L12.67 23.7029ZM12.6781 23.7099L12.2581 24.6175L12.4591 24.7105L12.879 23.8029L13.299 22.8954L13.098 22.8024L12.6781 23.7099ZM12.879 23.8029L12.6246 24.77C12.7507 24.8032 12.9423 24.828 13.1617 24.7674C13.3951 24.7031 13.5776 24.5647 13.7007 24.4046L12.908 23.7949L12.1154 23.1852C12.2319 23.0339 12.4062 22.9012 12.6299 22.8394C12.8397 22.7816 13.0201 22.806 13.1335 22.8359L12.879 23.8029ZM12.908 23.7949L13.8696 24.0696L13.8736 24.0556L12.912 23.7809L11.9505 23.5062L11.9465 23.5202L12.908 23.7949ZM12.912 23.7809L13.9105 23.7256L13.8765 23.1116L12.878 23.1669L11.8796 23.2222L11.9136 23.8362L12.912 23.7809ZM12.878 23.1669L13.8416 22.8993C13.766 22.6274 13.5428 22.2926 13.1157 22.1787L12.858 23.1449L12.6004 24.1112C12.4284 24.0653 12.2624 23.9701 12.1306 23.8251C12.0053 23.6873 11.9442 23.5415 11.9145 23.4346L12.878 23.1669ZM12.143 23.1469L12.6613 22.2917C12.4365 22.1555 12.1678 22.1114 11.9114 22.1683L12.1283 23.1445L12.3453 24.1207C12.0989 24.1754 11.8408 24.1331 11.6248 24.0021L12.143 23.1469ZM12.1283 23.1445L11.9114 22.1683C11.655 22.2253 11.4303 22.3791 11.2843 22.5977L12.116 23.1529L12.9478 23.7081C12.8075 23.9182 12.5917 24.0659 12.3453 24.1207L12.1283 23.1445ZM12.116 23.1529L11.1969 22.759L11.1909 22.773L12.11 23.1669L13.0292 23.5609L13.0352 23.5469L12.116 23.1529ZM12.11 23.1669L11.1116 23.1116L11.0776 23.7256L12.076 23.7809L13.0745 23.8362L13.1085 23.2222L12.11 23.1669ZM12.076 23.7809L11.0776 23.8364C11.086 23.9878 11.1309 24.185 11.2648 24.374C11.4011 24.5664 11.5804 24.6807 11.7419 24.7413L12.0931 23.8049L12.4442 22.8686C12.595 22.9252 12.7662 23.0335 12.8968 23.2179C13.025 23.3989 13.0668 23.5861 13.0745 23.7255L12.076 23.7809ZM12.0931 23.8049L12.2253 24.7962L12.2403 24.7942L12.108 23.8029L11.9758 22.8117L11.9608 22.8137L12.0931 23.8049ZM12.108 23.8029L12.528 24.7105L12.729 24.6175L12.309 23.7099L11.8891 22.8024L11.6881 22.8954L12.108 23.8029ZM12.309 23.7099L12.9337 24.4908L12.9437 24.4828L12.319 23.7019L11.6944 22.921L11.6844 22.929L12.309 23.7099ZM12.319 23.7019L13.2588 24.0437L13.2628 24.0327L12.323 23.6909L11.3833 23.3492L11.3793 23.3602L12.319 23.7019ZM12.323 23.6909L13.3223 23.7304L13.3393 23.3004L12.34 23.2609L11.3408 23.2214L11.3238 23.6514L12.323 23.6909ZM12.34 23.2609L13.3102 23.0184L13.3072 23.0064L12.337 23.2489L11.3669 23.4915L11.3699 23.5035L12.34 23.2609ZM12.337 23.2489L13.0442 22.5418L13.0342 22.5318L12.327 23.2389L11.6199 23.946L11.6299 23.956L12.337 23.2489ZM12.327 23.2389L12.7743 22.3445L12.5903 22.2525L12.143 23.1469L11.6958 24.0414L11.8798 24.1334L12.327 23.2389Z" fill="white" mask="url(#path-1-inside-1_136_213)"/>
<path d="M10.5 20C10.5 20.3978 10.658 20.7794 10.9393 21.0607C11.2206 21.342 11.6022 21.5 12 21.5C12.3978 21.5 12.7794 21.342 13.0607 21.0607C13.342 20.7794 13.5 20.3978 13.5 20V13.5H20C20.3978 13.5 20.7794 13.342 21.0607 13.0607C21.342 12.7794 21.5 12.3978 21.5 12C21.5 11.6022 21.342 11.2206 21.0607 10.9393C20.7794 10.658 20.3978 10.5 20 10.5H13.5V4C13.5 3.60218 13.342 3.22064 13.0607 2.93934C12.7794 2.65804 12.3978 2.5 12 2.5C11.6022 2.5 11.2206 2.65804 10.9393 2.93934C10.658 3.22064 10.5 3.60218 10.5 4V10.5H4C3.60218 10.5 3.22064 10.658 2.93934 10.9393C2.65804 11.2206 2.5 11.6022 2.5 12C2.5 12.3978 2.65804 12.7794 2.93934 13.0607C3.22064 13.342 3.60218 13.5 4 13.5H10.5V20Z" fill="white"/>
</svg>
