<svg width="16" height="16" viewBox="0 0 16 16" fill="none" xmlns="http://www.w3.org/2000/svg">
<path d="M8 9.5C9.06019 9.49936 10.104 9.62414 11.1318 9.87402C12.1579 10.1235 13.1707 10.4955 14.1699 10.9932V10.9941C14.5702 11.2012 14.8911 11.4997 15.1367 11.8994C15.3795 12.2946 15.5005 12.7245 15.5 13.1992V14C15.5 14.4163 15.3579 14.7606 15.0596 15.0596C14.7616 15.358 14.4176 15.5004 14.001 15.5H2C1.58354 15.5 1.23963 15.3578 0.941406 15.0596C0.680391 14.7986 0.538542 14.5021 0.506836 14.1523L0.5 13.999V13.2002C0.5 12.7244 0.62163 12.2948 0.864258 11.9004C1.10992 11.501 1.43009 11.202 1.83008 10.9941L1.8291 10.9932C2.82837 10.4941 3.84128 10.1222 4.86719 9.87402C5.89527 9.62535 6.93951 9.50067 8 9.5ZM8 0.5C8.96634 0.5 9.78137 0.838007 10.4717 1.52832C11.162 2.21863 11.5 3.03366 11.5 4C11.5 4.96634 11.162 5.78137 10.4717 6.47168C9.78137 7.16199 8.96634 7.5 8 7.5C7.03366 7.5 6.21863 7.16199 5.52832 6.47168C4.83801 5.78137 4.5 4.96634 4.5 4C4.5 3.03366 4.83801 2.21863 5.52832 1.52832C6.21863 0.838007 7.03366 0.5 8 0.5Z" fill="#18362B" stroke="#1E4436"/>
</svg>
