<svg width="16" height="18" viewBox="0 0 16 18" fill="none" xmlns="http://www.w3.org/2000/svg">
<path d="M6.00098 4.5C5.59092 4.49908 5.2237 4.64444 4.93359 4.93555C4.64468 5.22565 4.5 5.59129 4.5 6V13C4.5 13.4095 4.64436 13.7762 4.93457 14.0664C5.2248 14.3566 5.59147 14.5009 6.00098 14.5C6.40923 14.499 6.77521 14.3546 7.06543 14.0664H7.06641C7.35706 13.7767 7.5 13.4093 7.5 13V6C7.5 5.59047 7.35525 5.22338 7.06445 4.93359C6.77472 4.64505 6.40908 4.50096 6.00098 4.5ZM10.001 4.5C9.59092 4.49908 9.2237 4.64444 8.93359 4.93555C8.64468 5.22565 8.5 5.59129 8.5 6V13C8.5 13.4095 8.64436 13.7762 8.93457 14.0664C9.2248 14.3566 9.59147 14.5009 10.001 14.5C10.4092 14.499 10.7752 14.3546 11.0654 14.0664H11.0664C11.3571 13.7767 11.5 13.4093 11.5 13V6C11.5 5.59053 11.3561 5.22336 11.0654 4.93359C10.7756 4.64481 10.4093 4.50096 10.001 4.5ZM1.5 2.5H1C0.843071 2.5 0.735379 2.45234 0.642578 2.35938C0.548737 2.26521 0.500411 2.15597 0.5 1.99902C0.499634 1.84403 0.546694 1.73634 0.640625 1.64258C0.735797 1.54774 0.844882 1.5 1 1.5H5.5V1C5.5 0.843071 5.54766 0.735379 5.64062 0.642578C5.71123 0.572215 5.79038 0.526847 5.8916 0.508789L6.00098 0.5H10C10.1571 0.5 10.2656 0.547827 10.3594 0.641602C10.4531 0.735323 10.5004 0.843282 10.5 0.999023L10.499 1.5H15C15.1571 1.5 15.2656 1.54783 15.3594 1.6416C15.4531 1.73532 15.5004 1.84328 15.5 1.99902C15.4996 2.15585 15.4517 2.26534 15.3574 2.36035C15.265 2.4534 15.1578 2.50073 15.002 2.5L14.5 2.49805V16C14.5 16.4163 14.3579 16.7606 14.0596 17.0596C13.7616 17.358 13.4176 17.5004 13.001 17.5H3C2.58354 17.5 2.23963 17.3578 1.94141 17.0596C1.64317 16.7613 1.50051 16.4165 1.5 15.999V2.5Z" fill="#1E4436" stroke="#1E4436"/>
</svg>
