<svg width="19" height="19" viewBox="0 0 19 19" fill="none" xmlns="http://www.w3.org/2000/svg">
<path d="M14 4.66045e-09C14.7652 -4.26217e-05 15.5015 0.292325 16.0583 0.817284C16.615 1.34224 16.9501 2.06011 16.995 2.824L17 3V13H17.75C18.397 13 18.93 13.492 18.994 14.122L19 14.25V16C19 16.7652 18.7077 17.5015 18.1827 18.0583C17.6578 18.615 16.9399 18.9501 16.176 18.995L16 19H6C5.23479 19 4.49849 18.7077 3.94174 18.1827C3.38499 17.6578 3.04989 16.9399 3.005 16.176L3 16V6H1.25C0.940542 6.00014 0.642032 5.88549 0.412234 5.67823C0.182437 5.47097 0.0376885 5.18583 0.00600005 4.878L4.66045e-09 4.75V3C-4.26217e-05 2.23479 0.292325 1.49849 0.817284 0.941739C1.34224 0.384993 2.06011 0.0498925 2.824 0.00500012L3 4.66045e-09H14ZM14 2H5V16C5 16.2652 5.10536 16.5196 5.29289 16.7071C5.48043 16.8946 5.73478 17 6 17C6.26522 17 6.51957 16.8946 6.70711 16.7071C6.89464 16.5196 7 16.2652 7 16V14.25C7 13.56 7.56 13 8.25 13H15V3C15 2.73478 14.8946 2.48043 14.7071 2.29289C14.5196 2.10536 14.2652 2 14 2ZM17 15H9V16C9 16.35 8.94 16.687 8.83 17H16C16.2652 17 16.5196 16.8946 16.7071 16.7071C16.8946 16.5196 17 16.2652 17 16V15ZM10 9C10.2652 9 10.5196 9.10536 10.7071 9.29289C10.8946 9.48043 11 9.73478 11 10C11 10.2652 10.8946 10.5196 10.7071 10.7071C10.5196 10.8946 10.2652 11 10 11H8C7.73478 11 7.48043 10.8946 7.29289 10.7071C7.10536 10.5196 7 10.2652 7 10C7 9.73478 7.10536 9.48043 7.29289 9.29289C7.48043 9.10536 7.73478 9 8 9H10ZM12 5C12.2652 5 12.5196 5.10536 12.7071 5.29289C12.8946 5.48043 13 5.73478 13 6C13 6.26522 12.8946 6.51957 12.7071 6.70711C12.5196 6.89464 12.2652 7 12 7H8C7.73478 7 7.48043 6.89464 7.29289 6.70711C7.10536 6.51957 7 6.26522 7 6C7 5.73478 7.10536 5.48043 7.29289 5.29289C7.48043 5.10536 7.73478 5 8 5H12ZM3 2C2.75507 2.00003 2.51866 2.08996 2.33563 2.25272C2.15259 2.41547 2.03566 2.63975 2.007 2.883L2 3V4H3V2Z" fill="#18362B"/>
</svg>
